<svg width="128" height="128" viewBox="0 0 128 128" fill="none" xmlns="http://www.w3.org/2000/svg">
<circle cx="64" cy="64" r="64" fill="white"/>
<path d="M39.875 22C35.5273 22 32 25.5273 32 29.875V98.125C32 102.473 35.5273 106 39.875 106H55.625V92.875C55.625 88.5273 59.1523 85 63.5 85C67.8477 85 71.375 88.5273 71.375 92.875V106H87.125C91.4727 106 95 102.473 95 98.125V29.875C95 25.5273 91.4727 22 87.125 22H39.875ZM42.5 61.375C42.5 59.9312 43.6812 58.75 45.125 58.75H50.375C51.8188 58.75 53 59.9312 53 61.375V66.625C53 68.0688 51.8188 69.25 50.375 69.25H45.125C43.6812 69.25 42.5 68.0688 42.5 66.625V61.375ZM60.875 58.75H66.125C67.5688 58.75 68.75 59.9312 68.75 61.375V66.625C68.75 68.0688 67.5688 69.25 66.125 69.25H60.875C59.4312 69.25 58.25 68.0688 58.25 66.625V61.375C58.25 59.9312 59.4312 58.75 60.875 58.75ZM74 61.375C74 59.9312 75.1812 58.75 76.625 58.75H81.875C83.3188 58.75 84.5 59.9312 84.5 61.375V66.625C84.5 68.0688 83.3188 69.25 81.875 69.25H76.625C75.1812 69.25 74 68.0688 74 66.625V61.375ZM45.125 37.75H50.375C51.8188 37.75 53 38.9312 53 40.375V45.625C53 47.0688 51.8188 48.25 50.375 48.25H45.125C43.6812 48.25 42.5 47.0688 42.5 45.625V40.375C42.5 38.9312 43.6812 37.75 45.125 37.75ZM58.25 40.375C58.25 38.9312 59.4312 37.75 60.875 37.75H66.125C67.5688 37.75 68.75 38.9312 68.75 40.375V45.625C68.75 47.0688 67.5688 48.25 66.125 48.25H60.875C59.4312 48.25 58.25 47.0688 58.25 45.625V40.375ZM76.625 37.75H81.875C83.3188 37.75 84.5 38.9312 84.5 40.375V45.625C84.5 47.0688 83.3188 48.25 81.875 48.25H76.625C75.1812 48.25 74 47.0688 74 45.625V40.375C74 38.9312 75.1812 37.75 76.625 37.75Z" fill="#213243"/>
</svg>
