<svg width="128" height="128" viewBox="0 0 128 128" fill="none" xmlns="http://www.w3.org/2000/svg">
<circle cx="64" cy="64" r="64" fill="white"/>
<path d="M62.1364 26.3786L28.8903 40.6299C26.8125 41.5207 25.6548 43.7474 26.1149 45.9445C26.575 48.1416 28.5045 49.7449 30.7604 49.7449V50.9325C30.7604 52.9069 32.3485 54.4954 34.3225 54.4954H93.6905C95.6645 54.4954 97.2526 52.9069 97.2526 50.9325V49.7449C99.5086 49.7449 101.453 48.1565 101.898 45.9445C102.343 43.7326 101.186 41.5058 99.1227 40.6299L65.8766 26.3786C64.6893 25.8738 63.3238 25.8738 62.1364 26.3786ZM45.0088 59.2458H35.5099V88.387C35.4208 88.4315 35.3318 88.4909 35.2427 88.5503L28.1186 93.3007C26.382 94.4586 25.5954 96.626 26.2039 98.6301C26.8125 100.634 28.6677 102 30.7604 102H97.2526C99.3454 102 101.186 100.634 101.794 98.6301C102.403 96.626 101.631 94.4586 99.8797 93.3007L92.7555 88.5503C92.6665 88.4909 92.5774 88.4463 92.4883 88.387L92.5032 59.2458H83.0043V87.7486H77.0675V59.2458H67.5686V87.7486H60.4445V59.2458H50.9456V87.7486H45.0088V59.2458ZM64.0065 35.4935C65.2662 35.4935 66.4742 35.994 67.3649 36.8849C68.2556 37.7758 68.756 38.9841 68.756 40.244C68.756 41.5039 68.2556 42.7122 67.3649 43.6031C66.4742 44.4939 65.2662 44.9944 64.0065 44.9944C62.7469 44.9944 61.5389 44.4939 60.6482 43.6031C59.7575 42.7122 59.2571 41.5039 59.2571 40.244C59.2571 38.9841 59.7575 37.7758 60.6482 36.8849C61.5389 35.994 62.7469 35.4935 64.0065 35.4935Z" fill="#213243"/>
</svg>
