<svg width="128" height="128" viewBox="0 0 128 128" fill="none" xmlns="http://www.w3.org/2000/svg">
<circle cx="64" cy="64" r="64" fill="white"/>
<path d="M73.2921 27.3954C71.4366 25.5399 68.4233 25.5399 66.5679 27.3954L48.7554 45.2079C46.8999 47.0633 46.8999 50.0766 48.7554 51.9321L51.1304 54.3071C52.9858 56.1625 55.9991 56.1625 57.8546 54.3071L58.4483 53.7133L74.3015 69.5516L73.7077 70.1454C71.8522 72.0008 71.8522 75.0141 73.7077 76.8696L76.0827 79.2446C77.9382 81.1 80.9515 81.1 82.8069 79.2446L100.619 61.4321C102.475 59.5766 102.475 56.5633 100.619 54.7079L98.2444 52.3329C96.389 50.4774 93.3757 50.4774 91.5202 52.3329L90.9265 52.9266L75.0733 37.0735L75.6671 36.4797C77.5226 34.6243 77.5226 31.611 75.6671 29.7555L73.2921 27.3805V27.3954ZM50.7296 70.1454C48.8741 68.2899 45.8608 68.2899 44.0054 70.1454L27.3804 86.7704C25.5249 88.6258 25.5249 91.6391 27.3804 93.4946L34.5054 100.62C36.3608 102.475 39.3741 102.475 41.2296 100.62L57.8546 83.9946C59.7101 82.1391 59.7101 79.1258 57.8546 77.2704L57.6468 77.0625L66.3749 68.3493L59.6507 61.625L50.9374 70.3383L50.7296 70.1305V70.1454Z" fill="#213243"/>
</svg>
