<svg width="128" height="128" viewBox="0 0 128 128" fill="none" xmlns="http://www.w3.org/2000/svg">
<circle cx="64" cy="64" r="64" fill="white"/>
<path d="M52.125 34.3125V40.25H75.875V34.3125C75.875 33.6594 75.3406 33.125 74.6875 33.125H53.3125C52.6594 33.125 52.125 33.6594 52.125 34.3125ZM45 40.25V34.3125C45 29.7258 48.7258 26 53.3125 26H74.6875C79.2742 26 83 29.7258 83 34.3125V40.25V45V97.25H45V45V40.25ZM35.5 40.25H40.25V97.25H35.5C30.2602 97.25 26 92.9898 26 87.75V49.75C26 44.5102 30.2602 40.25 35.5 40.25ZM92.5 97.25H87.75V40.25H92.5C97.7398 40.25 102 44.5102 102 49.75V87.75C102 92.9898 97.7398 97.25 92.5 97.25Z" fill="#213243"/>
</svg>
