<svg width="128" height="128" viewBox="0 0 128 128" fill="none" xmlns="http://www.w3.org/2000/svg">
<circle cx="64" cy="64" r="64" fill="white"/>
<path d="M40.125 30C42.9429 30 45.6454 31.1194 47.638 33.112C49.6306 35.1046 50.75 37.8071 50.75 40.625C50.75 43.4429 49.6306 46.1454 47.638 48.138C45.6454 50.1306 42.9429 51.25 40.125 51.25C37.3071 51.25 34.6046 50.1306 32.612 48.138C30.6194 46.1454 29.5 43.4429 29.5 40.625C29.5 37.8071 30.6194 35.1046 32.612 33.112C34.6046 31.1194 37.3071 30 40.125 30ZM89 30C91.8179 30 94.5204 31.1194 96.513 33.112C98.5056 35.1046 99.625 37.8071 99.625 40.625C99.625 43.4429 98.5056 46.1454 96.513 48.138C94.5204 50.1306 91.8179 51.25 89 51.25C86.1821 51.25 83.4796 50.1306 81.487 48.138C79.4944 46.1454 78.375 43.4429 78.375 40.625C78.375 37.8071 79.4944 35.1046 81.487 33.112C83.4796 31.1194 86.1821 30 89 30ZM21 69.6711C21 61.8484 27.3484 55.5 35.1711 55.5H40.8422C42.9539 55.5 44.9594 55.9648 46.7656 56.7883C46.593 57.7445 46.5133 58.7406 46.5133 59.75C46.5133 64.8234 48.7445 69.3789 52.2641 72.5C52.2375 72.5 52.2109 72.5 52.1711 72.5H23.8289C22.275 72.5 21 71.225 21 69.6711ZM74.8289 72.5C74.8023 72.5 74.7758 72.5 74.7359 72.5C78.2688 69.3789 80.4867 64.8234 80.4867 59.75C80.4867 58.7406 80.3938 57.7578 80.2344 56.7883C82.0406 55.9516 84.0461 55.5 86.1578 55.5H91.8289C99.6516 55.5 106 61.8484 106 69.6711C106 71.2383 104.725 72.5 103.171 72.5H74.8422H74.8289ZM50.75 59.75C50.75 56.3685 52.0933 53.1255 54.4844 50.7344C56.8755 48.3433 60.1185 47 63.5 47C66.8815 47 70.1245 48.3433 72.5156 50.7344C74.9067 53.1255 76.25 56.3685 76.25 59.75C76.25 63.1315 74.9067 66.3745 72.5156 68.7656C70.1245 71.1567 66.8815 72.5 63.5 72.5C60.1185 72.5 56.8755 71.1567 54.4844 68.7656C52.0933 66.3745 50.75 63.1315 50.75 59.75ZM38 94.4539C38 84.6789 45.9289 76.75 55.7039 76.75H71.2828C81.0711 76.75 89 84.6789 89 94.4539C89 96.4062 87.4195 98 85.4539 98H41.5328C39.5805 98 37.9867 96.4195 37.9867 94.4539H38Z" fill="#213243"/>
</svg>
